	The Biggest Loser Australia Season 7 Episode 21

16 Single people who are overweight and looking for love line up to have their lives changed.

Tonight, Blindfold Box of Chocolates Temptation

Enjoy!

General
Complete name                    : K:\Torrents\Aust Biggest Loser\The.Biggest.Loser.Australia.s07e21.PDTV.XviD.BF1.avi
Format                           : AVI
Format/Info                      : Audio Video Interleave
File size                        : 499 MiB
Duration                         : 45mn 5s
Overall bit rate                 : 1 547 Kbps

Video
ID                               : 0
Format                           : MPEG-4 Visual
Format profile                   : Advanced Simple@L5
Format settings, BVOP            : 2
Format settings, QPel            : No
Format settings, GMC             : No warppoints
Format settings, Matrix          : Default (H.263)
Codec ID                         : XVID
Codec ID/Hint                    : XviD
Duration                         : 45mn 5s
Bit rate                         : 1 307 Kbps
Width                            : 640 pixels
Height                           : 352 pixels
Display aspect ratio             : 16:9
Frame rate                       : 25.000 fps
Color space                      : YUV
Chroma subsampling               : 4:2:0
Bit depth                        : 8 bits
Scan type                        : Progressive
Compression mode                 : Lossy
Bits/(Pixel*Frame)               : 0.232
Stream size                      : 422 MiB (84%)
Writing library                  : XviD 1.2.1 (UTC 2008-12-04)

Audio
ID                               : 1
Format                           : MPEG Audio
Format version                   : Version 1
Format profile                   : Layer 3
Mode                             : Joint stereo
Codec ID                         : 55
Codec ID/Hint                    : MP3
Duration                         : 45mn 5s
Bit rate mode                    : Variable
Bit rate                         : 227 Kbps
Minimum bit rate                 : 32.0 Kbps
Channel(s)                       : 2 channels
Sampling rate                    : 48.0 KHz
Compression mode                 : Lossy
Stream size                      : 73.4 MiB (15%)
